<svg xmlns="http://www.w3.org/2000/svg" viewBox="0 0 1080 1080"><defs><style>.cls-1{fill:#d4145a;}.cls-2{fill:#fff;}</style></defs><title>LOGO_INDIVIDUAL</title><g id="LOGO_INDIVIDUAL" data-name="LOGO INDIVIDUAL"><path class="cls-1" d="M484.71,400.08l95.41-95.41A65.55,65.55,0,0,0,540.37,292q-28.5,0-48.84,20.09t-20.33,48.2A67.53,67.53,0,0,0,484.71,400.08Zm58.7,28.42q26.25-1,45.3-20t20.09-45.36Zm-26.17-3.77L604.93,337a64.24,64.24,0,0,0-9.68-17.55l-95.64,95.64A65.65,65.65,0,0,0,517.24,424.73Z"/><path class="cls-2" d="M439.25,566v22q0,45.36,26.34,74a82,82,0,0,0,29.06,20.37l-66.46,66.46a190.84,190.84,0,0,1-15.67-14.49q-52-53.72-52.52-129.16V472.44H704.56L611,566Z"/><path class="cls-2" d="M540.24,690.63h1.2l-79.89,79.89a164.36,164.36,0,0,1-16.06-9.06L518,688.92A136.57,136.57,0,0,0,540.24,690.63Z"/><path class="cls-2" d="M640.75,587V566.2L720,486.94v25.12l-79.26,79.26C640.76,589.9,640.77,588.46,640.75,587Z"/><path class="cls-2" d="M529.33,787.73,720,597.06v8.1q0,9-.75,17.77L554.63,787.54q-7,.5-14.15.49Q534.84,788,529.33,787.73Z"/><path class="cls-2" d="M482.81,779.19l92.88-92.88q26.26-7.21,41.37-26.47A108.37,108.37,0,0,0,634.7,627.3L720,542v25.12L502.71,784.41A169.4,169.4,0,0,1,482.81,779.19Z"/><path class="cls-2" d="M668.19,734.08q-33.63,35-77.47,47.32L712.3,659.82Q700,700.91,668.19,734.08Z"/></g></svg>